<?xml version="1.0" encoding="utf-8"?>
<!-- Generator: Adobe Illustrator 22.0.1, SVG Export Plug-In . SVG Version: 6.00 Build 0)  -->
<svg version="1.1" xmlns="http://www.w3.org/2000/svg" xmlns:xlink="http://www.w3.org/1999/xlink" x="0px" y="0px"
	 viewBox="0 0 1000 200" style="enable-background:new 0 0 1000 200;" xml:space="preserve">
<style type="text/css">
	.st0{fill:none;stroke:#FCFAF2;stroke-width:5;stroke-miterlimit:10;}
	.st1{fill:#FCFAF2;}
</style>
<g id="圖層_2">
</g>
<g id="圖層_1">
	<g>
		<path class="st0" d="M178.1,65.6c-1.4,11.2-12.9,20.2-27.6,18.4c-14.7-1.9-21.3-11.3-19.8-22.4s10.3-19.9,25-18
			C170.3,45.4,179.5,54.4,178.1,65.6z"/>
		<g>
			<g>
				<path class="st1" d="M144.7,59c-1.7-0.7,0.7-3.2,2.1-2.8c1.9,0.5-0.2,3.3-1.1,4c-0.7,0.5-1.4,0.7-1.7-0.3
					c-0.3-0.9,0.3-1.8,1-2.3c0.1-0.1,0.3-0.2,0.4-0.3c0.5-0.1,0.6-0.2,0.2-0.5c-0.2-0.8-0.2,0.3-0.3,0.4c-0.4,0.8-0.6,1.9-1.6,2.2
					c0.6,0.1,1.3,0.2,1.9,0.3c0.3,1.4,0.5,1.7,0.7,0.9c0.6-0.7,0.2-0.9-1.2-0.8c-0.1-1-0.3-2-0.4-3c-0.1,0.2-0.3,0.4-0.5,0.5
					c1.1,0.3,2.3,0.6,3.4,0.9c-0.2,0.6-0.3,1.2-0.5,1.9c-1.3-0.7-2.5-1.4-3.8-2.2c0,0.1,0,0.2,0,0.3c0.2-0.6,0.5-1.2,0.7-1.8
					c-0.1,0.1-0.1,0.2-0.2,0.3c-0.8,1.1-1,2.5,0,3.5c0.9,0.9,2.7,1.1,3.5,0c0.6-0.8,0.9-1.4,1-2.4c0.2-2-2.2-2.9-3.8-2.2
					c-1.8,0.9-2.5,3.3-1.3,5c0.8,1,2.2,1.8,3.4,0.9c0.9-0.7,1.6-1.4,2.3-2.3c0.6-0.9,0.4-2.3-0.4-3c-2.6-2.4-5.6-0.5-6.9,2.2
					c-0.6,1.3-0.9,2.9-0.1,4.2c0.9,1.6,2.8,1.9,4.4,1.1c2.7-1.4,4.4-4.5,4.2-7.5c-0.2-3.2-3.2-4.8-6.1-3.9c-3,0.9-5.3,4-5.3,7.1
					c0,3.1,2.4,6.2,5.7,6.2c6.2,0,11.3-10,5.1-13.6c-3.1-1.8-7.1-0.7-9.1,2.1c-2.1,2.8-2,7.6,1.6,9.2c1.3,0.5,2.7,0.4,3.4-0.9
					C146.2,61.4,145.9,59.5,144.7,59L144.7,59z"/>
			</g>
		</g>
		<g>
			<g>
				<path class="st1" d="M146.5,58.4c0-0.7,0.1-0.4,0.3-0.7c0.1-0.1,0.4,0,0.5,0c0.3,0.1,0.2-0.1-0.4-0.5c-0.5-0.7-0.7-0.7-0.5,0
					c-0.2,0.9-0.4,2.7-1.8,2.7c0.4,0.1,0.8,0.2,1.3,0.3c0.5,0.3,0.3,1,0.4-0.2c0-0.4,0.1-0.7,0.2-1.1c0.1-0.3,0.2-0.6,0.3-0.8
					c0.3-0.8,0.3-0.2,0.1-0.2c-0.4-0.1-0.8-0.2-1.3-0.3c-0.2-0.6-0.3-0.7-0.3-0.3c0,0.2,0,0.5,0,0.7c0,0.6-0.6,0.8,0.5,0.4
					c0.5-0.2-0.5,0.7,0.4-0.3c0.1-0.1,0.1-0.2,0.2-0.3c0.3-0.4,0.4-0.5,0.3-0.2c-0.4,0-0.9,0-1.3,0c0.1,0,0.2,0.1,0.4,0.1
					c-0.4-0.2-0.7-0.4-1.1-0.6c-0.9-0.8,0,1.3-0.6,1.2c0.7-0.6,0.6-0.7-0.1-0.4c-0.5,0.2-0.7,0.3-0.5,0.1c0.6,0.2,1.2,0.5,1.8,0.7
					c-0.1-0.1-0.2-0.2-0.3-0.4c0.2,0.4,0.4,0.7,0.6,1.1c-0.2,0.1-0.2,0,0.1-0.2c0.2-0.2,0.5-0.5,0.7-0.7c-1.2,0-2.4,0-3.5,0
					c-0.2-0.2-0.1-0.8,0.1-0.9c1.3,0.7,2.5,1.4,3.8,2.2c0-0.6,0-1,0.5-1.3c-1-0.1-2-0.3-3-0.4c0,0,0,0,0,0c-0.1-0.4-0.2-0.8-0.3-1.3
					c0.1-0.1,0.1-0.3,0.2-0.4c0.4-0.2,0.7-0.4,1.1-0.6c0.1,0,0.2,0,0.3,0c-2,0.3-3,1.9-2.2,3.8c0,0,0,0,0,0.1
					c0.5,1.2,2.4,1.6,3.4,0.9c1-0.7,1.1-1.5,1.8-2.3c-0.3,0.4,0.5-0.3,0.6-0.3c0.4-0.3,0.9-0.7,1.2-1.2c1.3-2.2-0.3-4.9-2.9-4.8
					c-4.5,0.2-8.9,5.4-6.7,9.9c0.4,0.8,1.3,1.2,2.2,1.2c2.5,0,3.8-2.7,3.7-4.9c-0.1-2.4-3.4-3.5-4.7-1.3c-1.2,2.2-2.2,8.1,2.1,7.7
					c2.3-0.2,3.1-2.5,1.8-4.3c-0.1-0.1-0.1-0.2-0.2-0.3c-0.8-1.1-2.7-0.9-3.5,0c-1.1,1-0.8,2.5,0,3.5c0.1,0.1,0.1,0.2,0.2,0.3
					c0.6-1.4,1.2-2.8,1.8-4.3c-0.1,0-0.2,0-0.3,0c0.4,0.1,0.8,0.2,1.3,0.3c0.6,1.1,0.8,1.2,0.9,0.4c0.1-0.3,0.2-0.7,0.4-0.9
					c-1.6-0.4-3.1-0.8-4.7-1.3c0,0.5,0.1,0.4-0.1,0.6c0.6-0.2,1.2-0.5,1.8-0.7c-0.1,0-0.2,0-0.3,0c0.7,0.4,1.4,0.8,2.2,1.2
					c0-0.1-0.1-0.2-0.1-0.3c0.1,0.4,0.2,0.8,0.3,1.3c-0.1-0.9-0.1-1.7,0.5-2.4c0.3-0.3,0.6-0.5,1-0.7c0.2-0.1,1.2-0.1,0.5-0.3
					c-0.4-0.2-0.7-0.4-1.1-0.6c0.1,0.1,0.2,0.2,0.3,0.3c-0.2-0.4-0.4-0.7-0.6-1.1c0,0.1,0,0.2,0.1,0.4c0-0.4,0-0.9,0-1.3
					c0,0.1-0.1,0.2-0.1,0.4c0.2-0.4,0.4-0.7,0.6-1.1c-0.5,0.5-1.2,0.8-1.7,1.4c-0.2,0.3-0.5,0.6-0.7,0.9c-0.3,0.5-0.9,0.9,0.2,0.2
					c1.1,0.3,2.3,0.6,3.4,0.9c0,0,0,0,0-0.1c-0.7,1.3-1.4,2.5-2.2,3.8c1.5-0.2,2.5-0.8,3.1-2.2c0.6-1.4,0.4-3-0.8-4
					c-0.8-0.7-2.1-1-3-0.4c-1.9,1.3-3.2,3.2-3,5.6c0.1,1.8,2,3.2,3.8,2.2c2.5-1.5,2.9-4.8,0.9-7c-0.9-1-2.6-0.9-3.5,0
					c-1.2,1.1-2.3,2.5-2.3,4.2c-0.1,1.9,1.1,3.8,3.1,3.8c1.5,0,3.5-0.6,4.4-1.8c1-1.1,1.4-3.4,1.3-4.8c0-1.7-1-3.2-2.7-3.6
					c-1.8-0.4-3.3,0.8-4.4,2.1c-2.1,2.7-1.8,7,1.9,8.2c3.8,1.2,5.9-2.4,6-5.6c0.1-1.5-0.4-3.2-1.8-4c-1.5-0.9-3.5-0.6-4.8,0.6
					c-2.1,1.9-3.3,6.3-2,8.9c1.7,3.4,6,1.9,7.9-0.5c2-2.5,3.3-8.3-0.8-9.5c-3.6-1.1-7.5,1.7-7.3,5.6
					C141.7,61.6,146.7,61.6,146.5,58.4L146.5,58.4z"/>
			</g>
		</g>
		<g>
			<g>
				<path class="st1" d="M169.3,50.2c-2.8,2.3-2.9,7.6-1.3,10.6c2,3.7,5.9,4.3,9.7,3.3c2.7-0.7,2.2-5.1-0.7-4.9
					c-1.6,0.1-3.6,0.5-4.2-1.2c-0.5-1.3-1-3,0.3-4c-1.2,0-2.4,0-3.5,0c0.2,0.2,0.4,2.1,0.5,2.5c0.2,1.1,0.5,2.1,0.7,3.2
					c1.5-0.6,3-1.3,4.6-1.9c-0.6-1.3-0.9-2.6-1-4c-0.2-2.6-4.4-3.6-4.9-0.7c-0.2,1.4-0.4,2.7-0.4,4.1c0,3.3,4.7,3.2,5,0
					c0.1-1.3,0-2.6-0.3-3.9c-0.5-2.4-4.3-2.4-4.8,0c-0.3,1.3-0.4,2.7-0.3,4c0.3,2.5,4.4,3.7,4.9,0.7c0.3-1.6,0.4-3.2,0.4-4.9
					c0-3-3.9-3.2-4.9-0.7c-1.3,3.4-1.1,9,3,10.3c1.8,0.6,3.7-0.1,4.4-1.9c0.7-1.9-0.3-4.4-0.8-6.3c-1,1-2.1,2.1-3.1,3.1
					c-0.2-0.1-0.5-0.3-0.7-0.4c0.1,0.3,0.2,0.7,0.3,1c0.2,0.5,0.3,0.9,0.4,1.4c0.1-0.6,0.2-1.3,0.3-1.9c-0.1,0.1-0.1,0.2-0.2,0.3
					c1.4,0,2.9,0,4.3,0c-0.8-1.1-1.3-2.2-1.3-3.6c-1.4,0.6-2.8,1.2-4.3,1.8c0.5,0.5,0.9,1.1,1.1,1.8c0.1,0.4,0.2,0.7,0.3,1.1
					c0,0.6,0.1,0.7,0.2,0.4c0.4-0.5,0.8-1,1.1-1.5c1.4-0.6,0.4,0.1,0.4-0.9c-1.1,0.8-2.1,1.6-3.2,2.4c0.5,0,0.8,0.2,1.1,0.5
					c0.2-1.3,0.3-2.6,0.5-3.9c0.9-0.4,1.1,0.1,0.1-0.5c-0.3-0.2-0.6-0.4-0.9-0.6c-0.4,1.6-0.8,3.1-1.3,4.7c-0.6,0,0.4,0.8-0.2-0.2
					c0.4,0.7,0.5,1.4,1.2,2c1.3,1.2,3,1.4,4.7,1.3c-0.6-1.4-1.2-2.8-1.8-4.3c0.2,0,0.4-0.1,0.5-0.1c0,1.6,0,3.2,0,4.8
					c2.6-0.5,3.9-3.2,2.6-5.5c-0.9,1.2-1.9,2.4-2.8,3.7c0.3,0.1,0.7,0.2,1,0.4c0.4-1.6,0.9-3.2,1.3-4.8c-0.1,0-0.3-0.1-0.4-0.1
					c-3.1-0.9-4.4,3.9-1.3,4.8c0.1,0,0.3,0.1,0.4,0.1c3.1,0.9,4.3-3.8,1.3-4.8c-0.3-0.1-0.7-0.2-1-0.4c-2.1-0.8-3.8,1.9-2.8,3.7
					c0.1-0.6,0.3-1.2,0.4-1.9c-2.4,0.5-2.4,4.3,0,4.8c1.7,0.3,3,0,4.3-1.1c1.6-1.4,0.4-4.4-1.8-4.3c-0.4,0-0.8,0-1.2,0
					c0.2,0.4,0.2,0.4,0-0.2c-0.4-0.4-0.6-1.1-1-1.5c-0.9-0.8-2.1-1.4-3.4-1.5c-2.6-0.2-3.2,3.4-1.3,4.7c1.9,1.3,3.5,2.1,5.8,1.1
					c1.5-0.7,1.6-2.9,0.5-3.9c-1-0.9-2-1.5-3.3-1.8c-1.6-0.4-3.2,0.7-3.2,2.4c0,3.1,3.8,7.3,7.1,5.2c3.2-2,0.2-7.8-1.7-9.7
					c-1.5-1.5-4.3-0.4-4.3,1.8c0,2.2,0.6,4.3,1.9,6.1c1.1,1.5,3.3,1.7,4.3,0c0.9-1.6,0.2-3-0.3-4.6c-0.5-1.4-1.1-2.8-2.8-3.1
					c-1.8-0.3-3.7,1.1-3.1,3.1c0.2,0.8,1.1,2.8,0.8,3.6c0.4-0.5,0.8-1,1.1-1.5c0.8,0.1,0.9-0.1,0.6-0.6c-0.1-0.3-0.1-0.7-0.1-1
					c0-0.9,0.2-1.7,0.5-2.6c-1.6-0.2-3.3-0.4-4.9-0.7c0,1.2,0,2.4-0.2,3.5c1.6,0.2,3.3,0.4,4.9,0.7c-0.1-0.9-0.1-1.8,0.1-2.7
					c-1.6,0-3.2,0-4.8,0c0.2,0.9,0.2,1.7,0.1,2.5c1.7,0,3.3,0,5,0c0-0.9,0.1-1.8,0.2-2.8c-1.6-0.2-3.3-0.4-4.9-0.7
					c0.2,2.3,0.7,4.4,1.7,6.5c1.2,2.7,5.1,0.7,4.6-1.9c-0.5-2.5-0.6-6-2.4-7.9c-1-1.1-2.5-0.8-3.5,0c-2.9,2.3-2.5,6.3-1.4,9.4
					c1.4,4,5.1,4.5,8.9,4.3c-0.2-1.6-0.4-3.3-0.7-4.9c-1.6,0.4-3.1,0.7-4-1c-0.6-1.2-0.6-3.7,0.5-4.6
					C175.3,51.7,171.8,48.2,169.3,50.2L169.3,50.2z"/>
			</g>
		</g>
		<g>
			<g>
				<path class="st1" d="M146.8,54.7c-1.2-3.1-4.5-2.6-6.1-0.2c-1.3,1.9-3,5-1.5,7.3c1.3,1.9,4.9,1.4,4.7-1.3
					c-0.1-1.1,0-2.2,0.8-3.2c0.8-1.1,1-2.5,0-3.5c-0.9-0.9-2.6-1-3.5,0c-1.8,2-3,4.7-2.1,7.4c0.8,2.5,3.4,4.2,6,4
					c-0.2-1.6-0.4-3.3-0.7-4.9c-0.2,0.1-0.1-1.1-0.1-1.3c0.2-1,0.7-1.7,1.5-2.3c2.1-1.9-0.2-4.5-2.4-4.2c-3.5,0.5-5.4,5.9-4.5,8.9
					c1.1,3.6,5.6,5.6,8.8,3.3c2.6-1.8,0.1-6.2-2.5-4.3c-0.7,0.5-1.4,0.2-1.5-0.7c-0.1-0.5,0.1-1,0.4-1.4c0.2-0.3,0.4-0.6,0.5-0.9
					c0.3-0.5,0.2-0.1,0.2-0.1c-0.8-1.4-1.6-2.8-2.4-4.2c-2.1,1.9-3.3,4.8-2.9,7.6c0.5,3,3.3,5.2,6.3,4.3c2.6-0.7,2.2-5.2-0.7-4.9
					c-2,0.2-1.1-2-0.3-2.9c-1.2-1.2-2.4-2.4-3.5-3.5c-1.6,2-2.5,4.2-2.2,6.7c1.6-0.4,3.1-0.8,4.7-1.3c0.1,0.6,0.2,0.6,0.3-0.1
					c0.1-0.2,0.2-0.5,0.3-0.7c0.2-0.3,0.5-1.2,0.8-1.4c-0.4,0.1-0.8,0.2-1.3,0.3c0.1,0,0.2,0,0.3,0c-0.4-0.1-0.8-0.2-1.3-0.3
					c0.1,0.1,0.2,0.1,0.3,0.2c-0.4-0.5-0.8-1-1.1-1.5c0,0.1,0.1,0.2,0.1,0.3c0.5,1.3,1.7,2.1,3.1,1.7
					C146.2,57.5,147.2,56,146.8,54.7L146.8,54.7z"/>
			</g>
		</g>
		<g>
			<g>
				<path class="st1" d="M144.7,57.3c0-0.1,0.1-0.3,0.1-0.5c0-0.3-0.2,0.4,0,0c0.2-0.4-0.2,0.1,0,0c0.1-0.1,0.5-0.4,0-0.1
					c0.1-0.1,0.2-0.1,0.3-0.2c0.5-0.3-0.2,0,0,0c0.2,0,0.3-0.1,0.5-0.1c-0.4,0.1-0.1,0,0.1,0c1.3,0,2.6-1.2,2.5-2.5
					c-0.1-1.4-1.1-2.5-2.5-2.5c-2.7-0.1-5.5,1.8-6,4.5c-0.2,1.3,0.3,2.8,1.7,3.1C142.9,59.3,144.5,58.7,144.7,57.3L144.7,57.3z"/>
			</g>
		</g>
		<g>
			<g>
				<path class="st1" d="M136.1,78.2c-5.9,2.9-10.8,12-9.2,18.5c2.3,9.5,16,12.5,24.1,13.1c9.1,0.6,20.5-1.1,24.3-10.7
					c3.1-7.7,1-17.3-7.1-20.5c-3-1.2-4.3,3.7-1.3,4.8c6.4,2.5,5.9,12.5,1.9,16.9c-4.7,5.2-13.7,5-20.1,4.2c-5.4-0.7-15.3-2.9-17-9.2
					c-1.2-4.4,3.2-11,6.9-12.9C141.5,81.1,139,76.7,136.1,78.2L136.1,78.2z"/>
			</g>
		</g>
		<g>
			<g>
				<path class="st1" d="M130.9,96.5c-8.4,0.7-10.6,11.6-10.1,18.5c0.9,11.1,11.5,17.8,21.5,19.8c9.8,2,25.1,1.6,30.8-8.1
					c4.1-7.1,6.2-22.3-4.2-25.2c-3.1-0.9-4.4,4-1.3,4.8c7.9,2.2,2.7,18-1.8,21.2c-6.1,4.2-16.8,3.9-23.6,2.2
					c-6.8-1.7-15.1-6.1-16.2-13.7c-0.5-3.5-0.2-14,5-14.5C134.1,101.3,134.1,96.3,130.9,96.5L130.9,96.5z"/>
			</g>
		</g>
		<g>
			<g>
				<path class="st1" d="M124.1,107.5c-9.2-1.5-19.1,9.2-20.2,17.7c-1.5,12.2,7.5,24.9,18.1,30.3c11.8,6,22.7,3.3,34.2-1.7
					c9.1-4,17.6-14.8,11.5-24.6c-1.7-2.7-6-0.2-4.3,2.5c5.1,8.2-4.1,15.3-10.8,18.2c-8.9,3.9-17.5,6-26.8,1.9
					c-8.5-3.8-15.5-12.3-16.8-21.5c-0.7-5,0.7-8.9,4.1-12.6c2.1-2.2,6.3-6,9.6-5.5C125.9,112.8,127.3,108,124.1,107.5L124.1,107.5z"
					/>
			</g>
		</g>
		<g>
			<g>
				<path class="st1" d="M109.4,115.5c-9-4-19.7,0.7-25.5,8.1c-6.8,8.5-7.2,21.1-1.4,30.2c6.6,10.2,18.1,14.3,29.8,13.3
					c7.1-0.6,19.7-2.2,20.7-11.1c0.3-3.2-4.7-3.2-5,0c-0.6,5.6-15.7,6.3-19.5,6.3c-8.6,0-16.9-3.6-21.7-11
					c-4.3-6.7-4.6-15.7-0.5-22.5c3.8-6.3,13.1-12.2,20.5-8.9C109.8,121.1,112.3,116.8,109.4,115.5L109.4,115.5z"/>
			</g>
		</g>
		<g>
			<g>
				<path class="st1" d="M88.9,120.1c-8.3-3.5-19.3-4.8-27.1,0.4c-7.3,4.9-10.9,16.4-9.5,24.8c3,17.5,28,26.6,42.6,17.9
					c2.8-1.7,0.2-6-2.5-4.3c-11.6,7-32.5-0.2-35.1-14.2c-1.4-7.4,2.2-17.9,9.4-21.1c6.5-2.9,14.6-1.3,20.9,1.4
					C90.6,126.1,91.9,121.3,88.9,120.1L88.9,120.1z"/>
			</g>
		</g>
		<g>
			<g>
				<path class="st1" d="M68.7,121.4c2.3-7-13-8.9-16.8-8.4c-8.7,1.2-16.7,6.9-18.9,15.6c-1.9,7.7,1.1,16,6.4,21.8
					c4.6,5,16.1,11.8,22.8,7.7c2.7-1.7,0.2-6-2.5-4.3c-2.4,1.5-7.4-0.9-9.6-1.9c-2.7-1.2-5.1-2.8-7.1-5c-3.4-3.7-5.6-8.7-5.5-13.8
					c0.2-6,3.9-10.8,9.2-13.3c3.1-1.5,6.8-2.3,10.2-1.7c0.8,0.1,6.9,2.6,7.1,2.1C62.9,123.1,67.7,124.4,68.7,121.4L68.7,121.4z"/>
			</g>
		</g>
		<g>
			<g>
				<path class="st1" d="M50.7,114.4c-3.2-12.9-20.7-10.9-26.4-1.1c-5.3,9.1,1,23.5,10.4,27.3c3,1.2,4.3-3.6,1.3-4.8
					c-5.4-2.2-9.5-11.1-8.6-16.7c1.3-8.2,15.9-13.5,18.4-3.3C46.7,118.9,51.5,117.5,50.7,114.4L50.7,114.4z"/>
			</g>
		</g>
		<g>
			<g>
				<path class="st1" d="M39,107.1c-0.7-4.5-5.5-7.4-9.1-9.5c-2.7-1.6-6.2-3.5-8.7-0.6c-2.4,2.9-2.6,8.1-2.6,11.7
					c0,5.5,1.4,10.4,3.7,15.4c1.3,2.9,5.7,0.4,4.3-2.5c-2.6-5.6-3.7-11.8-2.6-17.9c0.1-0.3,0.6-3.3,0.4-3.2c0.4-0.2,2.5,1.2,2.9,1.4
					c2.5,1.5,6.4,3.6,6.8,6.6C34.6,111.6,39.4,110.3,39,107.1L39,107.1z"/>
			</g>
		</g>
	</g>
	<g>
		<path class="st1" d="M259.8,102.1c-2.6,0-5-1.2-6.6-3.1l-1.7-2c-0.6-0.6-1.6-0.6-2.1,0.1l-3.8,5.1c-1.4,2-3.7,3.1-6.1,3.1
			c-1.5,0-2.4-1.8-1.5-3l5.4-7.4c0.4-0.6,0-1.4-0.7-1.4h-6c-1.8,0-3-1.3-3-3c0-1.7,1.3-3,3-3h8.8c0.8,0,1.7-0.7,1.7-1.6v-3
			c0-0.9-0.9-1.7-1.7-1.7h-4.2c-0.3,0-0.6,0.2-0.8,0.6c-0.5,1-1.4,1.8-2.6,1.8h-1.4c-1.6,0-2.6-1.6-2.1-3l2.5-6.2
			c0.7-1.8,2.6-3,4.6-3c1.5,0,2.6,1.6,2.1,3c-0.2,0.4,0.2,1,0.6,1h16.5c1.7,0,3,1.3,3,3s-1.3,3-3,3h-5.8c-0.9,0-1.7,0.8-1.7,1.7v3
			c0,0.9,0.8,1.6,1.7,1.6h7.5c1.8,0,3,1.4,3,3c0,1.8-1.3,3-3,3h-4.2c-0.6,0-1,0.8-0.6,1.3l3.7,4.3
			C262.2,100.2,261.3,102.1,259.8,102.1z M250.3,137.8c-3.2,0-5.8-2.5-5.8-5.7v-17c0-3.3,2.6-5.8,5.8-5.8h32.6
			c3.2,0,5.8,2.5,5.8,5.8v17c0,3.2-2.6,5.7-5.8,5.7H250.3z M282.3,117.4c0-0.9-0.8-1.6-1.6-1.6h-28.2c-0.8,0-1.6,0.7-1.6,1.6v1.4
			c0,0.9,0.8,1.6,1.6,1.6h28.2c0.8,0,1.6-0.7,1.6-1.6V117.4z M250.9,129.8c0,0.9,0.8,1.7,1.6,1.7h28.2c0.8,0,1.6-0.8,1.6-1.7v-1.4
			c0-0.8-0.8-1.6-1.6-1.6h-28.2c-0.8,0-1.6,0.8-1.6,1.6V129.8z M270.1,82.1c0-3.2,2.5-5.8,5.7-5.8h15.9c3.2,0,5.8,2.6,5.8,5.8v15
			c0,3.2-2.6,5.7-5.8,5.7h-15.9c-3.2,0-5.7-2.5-5.7-5.7V82.1z M289.8,96.9c0.9,0,1.7-0.8,1.7-1.6V83.9c0-0.9-0.8-1.7-1.7-1.7h-12.1
			c-0.8,0-1.6,0.8-1.6,1.7v11.4c0,0.8,0.8,1.6,1.6,1.6H289.8z"/>
		<path class="st1" d="M328.1,94.7c-1,0-1.7-0.7-1.7-1.6c0-0.2-0.2-0.5-0.4-0.4l-9.9,0.6c-1.4,0.1-2.5-1-2.5-2.3s1-2.6,2.5-2.6
			l9-0.6c0.7,0,1.3-0.6,1.3-1.4c0-0.7-0.6-1.4-1.3-1.4h-6.6c-1.4,0-2.5-1.1-2.5-2.5c0-1.4,1.1-2.6,2.5-2.6h6.9c0.6,0,1-0.4,1-1
			c0-0.6-0.4-1-1-1h-8.6c-1.4,0-2.5-1.1-2.5-2.5c0-1.4,1-2.5,2.5-2.5h9c0.3,0,0.6-0.2,0.6-0.6c0-1.1,1-2.1,2.1-2.1h0.9
			c1.1,0,2,1,2,2.1c0,0.3,0.2,0.6,0.6,0.6h9.2c1.4,0,2.5,1.1,2.5,2.5c0,1.4-1.1,2.5-2.5,2.5h-8.8c-0.5,0-1,0.4-1,1c0,0.6,0.5,1,1,1
			h7.1c1.3,0,2.4,1.1,2.4,2.6c0,1.4-1.1,2.5-2.4,2.5h-6.9c-0.6,0-1.2,0.6-1.2,1.2c0,0.6,0.6,1,1.2,1l8.7-0.6c1.4-0.1,2.5,1,2.5,2.3
			s-1,2.6-2.5,2.6l-9.4,0.6c-0.3,0.1-0.6,0.3-0.6,0.6c0,1.1-0.9,1.9-1.9,1.9H328.1z M317.4,137.8c-1.8,0-3-1.8-2.5-3.4l2-6.2
			c0.6-2,2.5-3.4,4.6-3.4c1.8,0,3,1.8,2.5,3.4l-2,6.2C321.4,136.5,319.5,137.8,317.4,137.8z M365.7,97.5c3.2,0,5.8,2.6,5.8,5.8v10.1
			c0,3.2-2.6,5.8-5.8,5.8h-40.5c-1.5,0-2.7-1.3-2.7-2.8c0-1.5,1.2-2.7,2.7-2.7h39.5c0.8,0,1.4-0.6,1.4-1.4s-0.6-1.4-1.4-1.4H328
			c-1.5,0-2.7-1.2-2.7-2.7c0-1.4,1.2-2.6,2.7-2.6h36.7c0.8,0,1.4-0.6,1.4-1.4c0-0.8-0.6-1.4-1.4-1.4h-39.5c-1.5,0-2.7-1.2-2.7-2.7
			c0-1.5,1.2-2.7,2.7-2.7H365.7z M333.3,122.1c1.9,0,3.4,1.5,3.4,3.4v5.8c0,0.9,0.6,1.6,1.5,1.6h27.4c1.8,0,3.4,1.5,3.4,3.4
			c0,1.9-1.5,3.4-3.4,3.4h-30c-3.2,0-5.8-2.6-5.8-5.8v-8.4C329.9,123.6,331.4,122.1,333.3,122.1z M353.7,129.3
			c-2.5,0-4.8-1.3-6.2-3.4l-1-1.6c-1-1.4,0.1-3.4,1.8-3.4c2.5,0,4.8,1.3,6.2,3.4l1,1.6C356.5,127.3,355.4,129.3,353.7,129.3z
			 M360.5,80c0.6,0,1-0.4,1-1c0-0.6-0.4-1-1-1h-9.7c-1.4,0-2.5-1.1-2.5-2.5c0-1.4,1.1-2.5,2.5-2.5h10.2c0.3,0,0.5-0.2,0.5-0.5
			c0-1,0.8-1.8,1.8-1.8h1.4c1,0,1.8,0.8,1.8,1.8c0,0.2,0.2,0.5,0.6,0.5h10.2c1.4,0,2.5,1.1,2.5,2.5c0,1.4-1.1,2.5-2.5,2.5h-9.8
			c-0.5,0-1,0.4-1,1c0,0.6,0.5,1,1,1h6.2c1.4,0,2.5,1.1,2.5,2.6c0,1.4-1.1,2.5-2.5,2.5h-6.2c-0.5,0-1,0.5-1,1s0.5,0.9,1,0.9h9.7
			c1.4,0,2.5,1.1,2.5,2.5c0,1.4-1.1,2.5-2.5,2.5h-10c-0.3,0-0.6,0.3-0.6,0.6c0,1.3-1,2.2-2.2,2.2h-0.4c-1.3,0-2.3-1-2.3-2.2
			c0-0.3-0.2-0.6-0.6-0.6h-10c-1.4,0-2.5-1-2.5-2.5c0-1.4,1.1-2.5,2.5-2.5h9.7c0.5,0,0.9-0.4,0.9-0.9s-0.4-1-0.9-1h-6.2
			c-1.4,0-2.6-1.1-2.6-2.5c0-1.4,1.2-2.6,2.6-2.6H360.5z M370,123.5c2.6,0,5,1.3,6.5,3.4l2.2,3c1,1.4,0,3.4-1.8,3.4
			c-2.6,0-5-1.2-6.5-3.3l-2.2-3.2C367.2,125.5,368.2,123.5,370,123.5z"/>
		<path class="st1" d="M453.8,75.1c1.8,0,3,1.2,3,3c0,1.8-1.2,3-3,3h-50.2c-0.9,0-1.7,0.9-1.7,1.8v14.7l-3.4,38.3
			c-0.2,1.8-1.4,3-3.2,3c-1.7,0-2.9-1.3-2.7-3l3.4-38.6V80.7c0-3.2,2.5-5.6,5.7-5.6H424c0.6,0,1.2-0.6,1.2-1.3v-1c0-1.8,1.3-3,3-3
			c1.8,0,3,1.3,3,3v1c0,0.6,0.6,1.3,1.3,1.3H453.8z M426.4,124c1.6,0,2.7,1.5,2.3,3l-0.2,0.8c-0.2,0.5,0.4,1,0.9,1l1.6-0.2
			c1.7-0.2,3,1,3,2.7c0,1.8-1.3,3.2-3,3.4l-24.4,3c-1.7,0.2-3.1-1-3.1-2.7c0-1.8,1.3-3.3,3.1-3.5l1.8-0.2c0.8,0,1.2-0.8,1-1.4
			l-0.7-2.3c-0.5-1.6,0.7-3.1,2.2-3.1c2,0,3.7,1.3,4.2,3.1l0.5,1.4c0.2,0.8,1,1.3,1.7,1.2l3.1-0.3c0.7-0.1,1.4-0.6,1.6-1.4l0.3-1.4
			C422.9,125.3,424.5,124,426.4,124z M432.5,92c0,1.7-1.3,2.9-2.9,2.9h-6.4c-0.8,0-1.6,0.8-1.6,1.7v0.6c0,0.9,0.8,1.6,1.6,1.6h4.6
			c1.7,0,2.9,1.3,2.9,2.9c0,1.7-1.2,2.9-2.9,2.9h-18.2c-1.6,0-2.9-1.2-2.9-2.9c0-1.6,1.3-2.9,2.9-2.9h4.6c0.9,0,1.7-0.7,1.7-1.6
			v-0.6c0-0.9-0.8-1.7-1.7-1.7h-6.4c-1.7,0-3-1.2-3-2.9s1.3-3,3-3h7c0.6,0,1.1-0.5,1.1-1.1v-0.8c0-1.6,1.3-2.9,2.9-2.9
			s2.9,1.3,2.9,2.9v0.8c0,0.6,0.6,1.1,1.1,1.1h6.9C431.3,89,432.5,90.3,432.5,92z M430.3,115.6c0,3.2-2.6,5.8-5.8,5.8h-11.6
			c-3.3,0-5.8-2.6-5.8-5.8v-3.2c0-3.2,2.5-5.8,5.8-5.8h11.6c3.2,0,5.8,2.6,5.8,5.8V115.6z M413.8,111.7c-0.9,0-1.7,0.7-1.7,1.6v1.4
			c0,0.9,0.8,1.6,1.7,1.6h9.8c0.9,0,1.7-0.7,1.7-1.6v-1.4c0-0.9-0.8-1.6-1.7-1.6H413.8z M455.8,95.3c1.8,0,3,1.3,3,3
			c0,1.8-1.3,3-3,3h-0.7c-0.6,0-1.1,0.6-1.1,1.1v33.3c0,1.8-1.3,3.1-3,3.1c-1.7,0-3-1.4-3-3.1v-32.8c0-0.8-0.8-1.6-1.7-1.6h-9.4
			c-1.7,0-3-1.3-3-3c0-1.8,1.4-3,3-3h9.4c0.9,0,1.7-0.8,1.7-1.7V87c0-1.7,1.4-3,3-3c1.8,0,3,1.4,3,3v7.1c0,0.6,0.6,1.1,1.1,1.1
			H455.8z M435.7,112.1c-0.5-1.5,0.6-3.1,2.3-3.1c1.9,0,3.7,1.3,4.3,3.1l1.4,4.5c0.5,1.5-0.6,3.1-2.2,3.1c-1.9,0-3.7-1.3-4.3-3.1
			L435.7,112.1z"/>
		<path class="st1" d="M474.8,86.6c-1.4,0-2.2-1.8-1.1-2.9l8.7-9.1c2-2.2,5.7-2.3,7.8-0.2l9.5,9.3c1,1,0.3,2.9-1.1,2.9
			c-2.7,0-5.3-1.1-7.2-3l-3.8-3.8c-0.7-0.6-1.8-0.6-2.4,0.1l-3.5,3.7C479.9,85.5,477.4,86.6,474.8,86.6z M491.7,90.6
			c3,0,5.4,2.3,5.4,5.4v12.4c0,3.1-2.4,5.4-5.4,5.4h-10.2c-0.8,0-1.7,0.8-1.7,1.7v1c0,0.8,0.9,1.7,1.7,1.7h12.9c1.5,0,2.6,1,2.6,2.6
			c0,1.5-1.1,2.6-2.6,2.6h-12.9c-0.8,0-1.7,0.8-1.7,1.8v1c0,0.8,0.9,1.6,1.7,1.6h12.9c1.5,0,2.6,1.1,2.6,2.6c0,1.5-1.1,2.6-2.6,2.6
			h-13.4c-0.5,0-1.1,0.6-1.1,1v0.9c0,1.4-1,2.5-2.5,2.5c-1.4,0-2.5-1-2.5-2.5v-39c0-3.1,2.4-5.4,5.4-5.4H491.7z M479.8,97.9
			c0,0.8,0.9,1.6,1.7,1.6h9c0.8,0,1.7-0.8,1.7-1.6v-0.7c0-0.8-0.9-1.7-1.7-1.7h-9c-0.8,0-1.7,0.9-1.7,1.7V97.9z M492.2,106.7
			c0-0.8-0.9-1.6-1.7-1.6h-9c-0.8,0-1.7,0.8-1.7,1.6v0.6c0,0.9,0.9,1.7,1.7,1.7h9c0.8,0,1.7-0.8,1.7-1.7V106.7z M491.3,86.2
			c0,1.2-0.9,2.2-2.2,2.2h-5.2c-1.2,0-2.2-1-2.2-2.2c0-1.2,1-2.2,2.2-2.2h5.2C490.4,84,491.3,85,491.3,86.2z M521.8,82.1
			c-0.5-0.6-1.6-0.6-2.2,0l-7.8,9.9c-1.6,2-3.8,3.1-6.2,3.1c-1.4,0-2.3-1.7-1.4-2.8L517,76c1.8-2.3,5.1-2.4,6.9-0.2l14.6,16.6
			c1,1,0.2,2.8-1.2,2.8c-2.6,0-5-1.1-6.7-3.1L521.8,82.1z M506.2,132.8c-1.5,0-2.6-1.4-2.2-3l2.4-8.2c0.5-1.8,2.1-3,4-3
			c1.6,0,2.7,1.4,2.2,3l-2.4,8.2C509.7,131.6,508.1,132.8,506.2,132.8z M527.3,93.4c1.8,0,3,1.2,3,3c0,1.8-1.3,3-3,3h-1.9
			c-0.7,0-1.4,0.7-1.4,1.4v2.6c0,0.8,0.8,1.7,1.6,1.7h9.4c1.8,0,3,1.2,3,3c0,1.7-1.2,2.9-3,2.9h-9.4c-0.8,0-1.6,0.9-1.6,1.7v22.5
			c0,1.7-1.2,2.9-3,2.9c-1.7,0-2.9-1.2-2.9-2.9v-22.5c0-0.8-0.8-1.7-1.6-1.7h-9.3c-1.8,0-3-1.2-3-2.9c0-1.8,1.2-3,3-3h9.3
			c0.8,0,1.6-0.9,1.6-1.7v-2.6c0-0.7-0.7-1.4-1.4-1.4h-1.8c-1.8,0-3-1.3-3-3c0-1.8,1.3-3,3-3H527.3z M530.5,121.6
			c-0.6-1.5,0.6-3,2.2-3c2,0,3.7,1.3,4.3,3l2.6,8.2c0.5,1.6-0.6,3-2.2,3c-2,0-3.7-1.2-4.2-3L530.5,121.6z"/>
		<path class="st1" d="M551.1,108c0-1.8,1.4-3.3,3.3-3.3h13c1.8,0,3.3,1.4,3.3,3.3s-1.5,3.3-3.3,3.3h-13
			C552.5,111.3,551.1,109.8,551.1,108z"/>
		<path class="st1" d="M645.6,117.9c1.8,0,3,1.3,3,3.1c0,1.8-1.2,3.1-3,3.1h-60.8c-1.8,0-3.1-1.3-3.1-3.1c0-1.8,1.3-3.1,3.1-3.1
			h25.6c0.9,0,1.8-1,1.8-1.8v-1.7c0-0.8-1-1.8-1.8-1.8H594c-1.8,0-3-1.3-3-3.1c0-1.8,1.3-3,3-3h16.4c0.9,0,1.8-1,1.8-1.8v-1.4
			c0-0.9-1-1.8-1.8-1.8h-16.6c-3.2,0-5.6-2.3-5.6-5.5v-19c0-3.2,2.4-5.6,5.6-5.6h42.7c3.2,0,5.6,2.4,5.6,5.6v19
			c0,3.2-2.4,5.5-5.6,5.5H620c-0.9,0-1.8,1-1.8,1.8v1.4c0,0.8,1,1.8,1.8,1.8h16.4c1.8,0,3,1.3,3,3c0,1.8-1.3,3.1-3,3.1H620
			c-0.9,0-1.8,1-1.8,1.8v1.7c0,0.9,1,1.8,1.8,1.8H645.6z M586.8,139.1c-1.7,0-2.9-1.5-2.3-3.3l1.5-4.4c0.6-1.8,2.4-3.3,4.6-3.3
			c1.7,0,2.9,1.6,2.3,3.3l-1.5,4.5C590.6,137.7,588.9,139.1,586.8,139.1z M594.4,93.7c0,0.9,1.2,1.8,2,1.8h14c0.9,0,1.8-1,1.8-1.8
			V79.3c0-0.8-1-1.8-1.8-1.8h-14c-0.8,0-2,1-2,1.8V93.7z M601.5,81.7c2.2,0,3.8,1.4,4.5,3.4l0.9,2.6c0.6,1.8-0.6,3.3-2.3,3.3
			c-2.2,0-3.8-1.4-4.6-3.3l-0.8-2.6C598.6,83.2,599.8,81.7,601.5,81.7z M603.8,132.5c-0.3-1.8,0.8-3.3,2.7-3.3c2,0,3.5,1.5,3.9,3.3
			l0.6,3.4c0.4,1.8-0.8,3.2-2.6,3.2c-2,0-3.5-1.4-3.9-3.2L603.8,132.5z M633.9,95.5c0.9,0,2.1-1,2.1-1.8V79.3c0-0.8-1.2-1.8-2.1-1.8
			H620c-0.9,0-1.8,1-1.8,1.8v14.4c0,0.9,1,1.8,1.8,1.8H633.9z M621.2,132.5c-0.5-1.8,0.7-3.3,2.4-3.3c2.2,0,3.8,1.4,4.5,3.3l1,3.4
			c0.6,1.8-0.6,3.3-2.3,3.3c-2.2,0-3.8-1.4-4.5-3.3L621.2,132.5z M630.2,87.7c-0.7,1.8-2.4,3.3-4.6,3.3c-1.7,0-2.9-1.6-2.3-3.3
			l0.8-2.6c0.6-2.1,2.4-3.5,4.6-3.5c1.8,0,2.9,1.5,2.3,3.5L630.2,87.7z M640.6,128.7c2.4,0,4.3,1.4,5.3,3.3l1.8,3.9
			c0.7,1.6-0.5,3.2-2,3.2c-2.3,0-4.2-1.4-5.2-3.2l-1.8-3.9C637.9,130.3,639.1,128.7,640.6,128.7z"/>
		<path class="st1" d="M665.3,97.1c-1.9,0-3.5-1.6-3.5-3.5c0-2,1.6-3.6,3.5-3.6h17.3c2.7,0,4.6,2.9,3.5,5.4l-14.3,32.7
			c-0.9,2.1-3,3.4-5.3,3.4c-1.8,0-3-1.8-2.3-3.4l13-29.6c0.3-0.6-0.2-1.4-1-1.4H665.3z M695.3,139.2c-1.9,0-3.5-1.5-3.5-3.4v-61
			c0-1.9,1.6-3.5,3.5-3.5s3.4,1.6,3.4,3.5v61C698.7,137.7,697.2,139.2,695.3,139.2z M723.3,85.4c1.8,0,2.4,2.2,1,3.2l-12.8,8.6
			c-0.7,0.5-1,1.4-0.6,2.2l15.9,28.6c0.9,1.5-0.2,3.4-2,3.4c-2.5,0-4.7-1.3-5.9-3.4l-15-27.1c-1.6-2.9-0.7-6.5,2-8.3l5.9-4
			c3.2-2.1,6.9-3.2,10.6-3.2H723.3z"/>
		<path class="st1" d="M764.6,121.5c-0.5-1.8,0.8-3.5,2.6-3.5c2.2,0,4.1,1.4,4.7,3.5l2.1,6.9c0.6,1.7-0.7,3.4-2.5,3.4H770
			c-1.2,0-2.3-0.7-2.6-1.9c-0.2-0.2-0.4-0.4-0.7-0.4l-23.2,4.9c-1.8,0.4-3.4-1-3.4-2.8c0-2.1,1.4-3.8,3.4-4.2l7.8-1.6
			c0.9-0.2,1.5-1,1.5-1.8v-11.5c0-0.9-0.7-1.5-1.6-1.5h-4.2c-3.2,0-5.8-2.6-5.8-5.8V89.7c0-3.2,2.6-5.8,5.8-5.8h4.2
			c0.9,0,1.6-0.7,1.6-1.5v-8.7c0-1.8,1.4-3.2,3.2-3.2c1.7,0,3.1,1.4,3.1,3.2v8.7c0,0.8,0.7,1.5,1.6,1.5h4.3c3.2,0,5.8,2.6,5.8,5.8
			v15.2c0,3.2-2.6,5.8-5.8,5.8h-4.3c-0.9,0-1.6,0.6-1.6,1.5v10.1c0,0.8,0.7,1.4,1.5,1.3l3.4-0.6c0.6-0.2,1-0.7,0.7-1.2L764.6,121.5z
			 M747.5,102.9c0,0.9,0.7,1.5,1.6,1.5h2c0.9,0,1.6-0.6,1.6-1.5v-11c0-0.9-0.7-1.5-1.6-1.5h-2c-0.9,0-1.6,0.6-1.6,1.5V102.9z
			 M764.4,91.8c0-0.9-0.7-1.5-1.6-1.5h-2.2c-0.9,0-1.6,0.6-1.6,1.5v11c0,0.9,0.7,1.5,1.6,1.5h2.2c0.9,0,1.6-0.6,1.6-1.5V91.8z
			 M808.6,85.9c0,1.8-1.5,3.4-3.4,3.4h-19.1c-0.9,0-1.5,0.6-1.5,1.5v38.5c0,0.9,0.6,1.6,1.5,1.6h18.2c1.9,0,3.5,1.5,3.5,3.4
			c0,1.9-1.6,3.5-3.5,3.5h-20.9c-3.2,0-5.8-2.6-5.8-5.8V88.2c0-3.2,2.6-5.8,5.8-5.8h5.6c0.9,0,1.6-0.6,1.6-1.5v-6.1
			c0-1.9,1.5-3.4,3.4-3.4c1.9,0,3.4,1.5,3.4,3.4v6.1c0,0.9,0.7,1.5,1.5,1.5h6.2C807.1,82.4,808.6,84,808.6,85.9z"/>
		<path class="st1" d="M881.9,106.9c1.8,0,3.3,1.4,3.3,3.3c0,1.9-1.4,3.4-3.3,3.4h-22.4c-0.9,0-1.5,0.8-1.5,1.6v20.2
			c0,1.9-1.5,3.4-3.4,3.4c-1.9,0-3.4-1.4-3.4-3.4v-20.2c0-0.8-0.6-1.6-1.5-1.6h-22.4c-1.8,0-3.3-1.4-3.3-3.4c0-1.8,1.4-3.3,3.3-3.3
			h22.4c0.9,0,1.5-0.8,1.5-1.7V81.4c0-0.8-0.6-1.6-1.5-1.6H829c-1.9,0-3.3-1.4-3.3-3.3c0-1.9,1.4-3.4,3.3-3.4h51
			c1.9,0,3.3,1.4,3.3,3.4c0,1.8-1.4,3.3-3.3,3.3h-20.6c-0.9,0-1.5,0.8-1.5,1.6v23.8c0,0.9,0.6,1.7,1.5,1.7H881.9z M834.1,87
			c2.2,0,4.2,1.4,5,3.5l2.6,7.2c0.6,1.7-0.6,3.4-2.4,3.4c-2.2,0-4.2-1.4-5-3.4l-2.6-7.2C831.1,88.9,832.4,87,834.1,87z M874.5,97.7
			c-0.7,2.1-2.7,3.4-5,3.4c-1.8,0-3-1.8-2.4-3.4l2.8-7.2c0.8-2.1,2.8-3.5,5-3.5c1.8,0,3,1.8,2.4,3.5L874.5,97.7z"/>
		<path class="st1" d="M960.9,106.8c-2.1,0-4-1.4-4.6-3.4l-0.3-1.3c-0.2-0.7-1-1.2-1.8-1.2l-41.1,1.8c-2.6,0.1-4.4-2.6-3.3-5
			l10.5-22.4c1-2.2,3.2-3.5,5.6-3.5c1.8,0,3,1.8,2.2,3.5l-8.9,18.9c-0.3,0.6,0.2,1.4,0.9,1.3l31.9-1.3c0.8-0.1,1.4-0.8,1.1-1.6
			l-1.6-5.7c-0.5-1.8,0.8-3.4,2.6-3.4c2.1,0,4,1.4,4.6,3.4l4.8,16.5C964,105.1,962.7,106.8,960.9,106.8z M917.5,138.3
			c-3.2,0-5.8-2.6-5.8-5.8v-16.5c0-3.2,2.6-5.8,5.8-5.8h35.1c3.2,0,5.8,2.6,5.8,5.8v16.5c0,3.2-2.6,5.8-5.8,5.8H917.5z M920.2,117.3
			c-0.9,0-1.5,0.6-1.5,1.5v11c0,0.9,0.6,1.5,1.5,1.5h29.7c0.9,0,1.6-0.6,1.6-1.5v-11c0-0.9-0.7-1.5-1.6-1.5H920.2z"/>
	</g>
	<g>
	</g>
	<g>
	</g>
	<g>
	</g>
	<g>
	</g>
	<g>
	</g>
</g>
</svg>
